<svg width="120" height="30" viewBox="0 0 120 30" fill="none" xmlns="http://www.w3.org/2000/svg">
  <path d="M14.9508 5.2998H20.1621V24.6998H14.9508V22.8873C13.8574 24.1998 12.1855 25.0373 9.98242 25.0373C5.27246 25.0373 1.71582 21.2373 1.71582 15.1248C1.71582 8.9623 5.27246 5.2123 9.98242 5.2123C12.1855 5.2123 13.8574 6.0498 14.9508 7.3123V5.2998ZM10.6699 20.6123C13.1855 20.6123 14.9508 18.4998 14.9508 15.1248C14.9508 11.7498 13.1855 9.6373 10.6699 9.6373C8.15429 9.6373 6.38892 11.7498 6.38892 15.1248C6.38892 18.4998 8.15429 20.6123 10.6699 20.6123Z" fill="#3040C4"/>
  <path d="M22.8354 15.0373C22.8354 9.0123 27.1504 5.2123 33.0117 5.2123C38.8731 5.2123 43.1881 9.0123 43.1881 15.0373C43.1881 21.1123 38.8731 24.9123 33.0117 24.9123C27.1504 24.9123 22.8354 21.1123 22.8354 15.0373ZM38.5156 15.0373C38.5156 11.3123 36.3125 9.6373 33.0117 9.6373C29.7109 9.6373 27.5078 11.3123 27.5078 15.0373C27.5078 18.7623 29.7109 20.4373 33.0117 20.4373C36.3125 20.4373 38.5156 18.7623 38.5156 15.0373Z" fill="#3040C4"/>
  <path d="M63.1429 5.2998V24.6998H57.9316V22.7123C56.8383 24.0248 55.1664 25.0373 52.9633 25.0373C48.2533 25.0373 44.6967 21.2373 44.6967 15.1248C44.6967 8.9623 48.2533 5.2123 52.9633 5.2123C55.1664 5.2123 56.8383 6.0498 57.9316 7.3123V5.2998H63.1429ZM53.6508 20.6123C56.1664 20.6123 57.9316 18.4998 57.9316 15.1248C57.9316 11.7498 56.1664 9.6373 53.6508 9.6373C51.1352 9.6373 49.3697 11.7498 49.3697 15.1248C49.3697 18.4998 51.1352 20.6123 53.6508 20.6123Z" fill="#3040C4"/>
  <path d="M83.2978 5.2998V24.6998H78.0865V22.7123C76.9932 24.0248 75.3213 25.0373 73.1182 25.0373C68.4082 25.0373 64.8516 21.2373 64.8516 15.1248C64.8516 8.9623 68.4082 5.2123 73.1182 5.2123C75.3213 5.2123 76.9932 6.0498 78.0865 7.3123V5.2998H83.2978ZM73.8057 20.6123C76.3213 20.6123 78.0865 18.4998 78.0865 15.1248C78.0865 11.7498 76.3213 9.6373 73.8057 9.6373C71.2901 9.6373 69.5246 11.7498 69.5246 15.1248C69.5246 18.4998 71.2901 20.6123 73.8057 20.6123Z" fill="#3040C4"/>
  <path d="M96.3896 5.2123C91.6797 5.2123 88.123 8.9623 88.123 15.1248C88.123 21.2373 91.6797 25.0373 96.3896 25.0373C99.6904 25.0373 102.293 23.3623 103.562 20.6123L99.6904 18.4498C99.0029 20.0373 97.9096 20.6998 96.3896 20.6998C94.1865 20.6998 92.7959 19.0248 92.7959 15.1248C92.7959 11.2248 94.1865 9.5498 96.3896 9.5498C97.9096 9.5498 99.0029 10.2123 99.6904 11.7998L103.562 9.6373C102.293 6.8873 99.6904 5.2123 96.3896 5.2123Z" fill="#3040C4"/>
  <path d="M118.285 10.1248H114.016V24.6998H109.344V10.1248H105.076V5.2998H109.344V0.0498047H114.016V5.2998H118.285V10.1248Z" fill="#3040C4"/>
</svg> 